<?xml version="1.0" encoding="UTF-8" standalone="no"?>
<svg
   width="16"
   height="16"
   viewBox="0 0 24 24"
   version="1.1"
   id="svg1"
   sodipodi:docname="mdi cube-outline.svg"
   inkscape:export-filename="pypi.svg"
   inkscape:export-xdpi="96"
   inkscape:export-ydpi="96"
   xmlns:inkscape="http://www.inkscape.org/namespaces/inkscape"
   xmlns:sodipodi="http://sodipodi.sourceforge.net/DTD/sodipodi-0.dtd"
   xmlns="http://www.w3.org/2000/svg"
   xmlns:svg="http://www.w3.org/2000/svg">
  <defs
     id="defs1" />
  <sodipodi:namedview
     id="namedview1"
     pagecolor="#ffffff"
     bordercolor="#000000"
     borderopacity="0.25"
     inkscape:showpageshadow="2"
     inkscape:pageopacity="0.0"
     inkscape:pagecheckerboard="0"
     inkscape:deskcolor="#d1d1d1"
     inkscape:zoom="73.3125"
     inkscape:cx="8"
     inkscape:cy="8"
     inkscape:window-width="2560"
     inkscape:window-height="1369"
     inkscape:window-x="-8"
     inkscape:window-y="-8"
     inkscape:window-maximized="1"
     inkscape:current-layer="svg1" />
  <ellipse
     style="fill:#ffffff;fill-opacity:1;stroke-width:1.5"
     id="path2"
     cx="11.928389"
     cy="12.030691"
     rx="8.2250643"
     ry="7.8772383" />
  <path
     fill="#000000"
     d="m 21,16.5 c 0,0.38 -0.21,0.71 -0.53,0.88 l -7.9,4.44 C 12.41,21.94 12.21,22 12,22 11.79,22 11.59,21.94 11.43,21.82 L 3.53,17.38 A 0.991,0.991 0 0 1 3,16.5 v -9 C 3,7.12 3.21,6.79 3.53,6.62 l 7.9,-4.44 C 11.59,2.06 11.79,2 12,2 c 0.21,0 0.41,0.06 0.57,0.18 l 7.9,4.44 C 20.79,6.79 21,7.12 21,7.5 v 9 M 12,4.15 6.04,7.5 12,10.85 17.96,7.5 12,4.15 m -7,11.76 6,3.38 V 12.58 L 5,9.21 v 6.7 m 14,0 v -6.7 l -6,3.37 v 6.71 z"
     id="path1" />
</svg>
