<?xml version="1.0" encoding="UTF-8" standalone="no"?>
<svg
   width="16"
   height="16"
   viewBox="0 0 24 24"
   version="1.1"
   id="svg1"
   sodipodi:docname="simple-icons readthedocs.svg"
   xmlns:inkscape="http://www.inkscape.org/namespaces/inkscape"
   xmlns:sodipodi="http://sodipodi.sourceforge.net/DTD/sodipodi-0.dtd"
   xmlns="http://www.w3.org/2000/svg"
   xmlns:svg="http://www.w3.org/2000/svg">
  <defs
     id="defs1" />
  <sodipodi:namedview
     id="namedview1"
     pagecolor="#ffffff"
     bordercolor="#000000"
     borderopacity="0.25"
     inkscape:showpageshadow="2"
     inkscape:pageopacity="0.0"
     inkscape:pagecheckerboard="0"
     inkscape:deskcolor="#d1d1d1" />
  <rect
     style="fill:#000000;fill-opacity:1;stroke-width:6.23992"
     id="rect1"
     width="20.89002"
     height="24.040918"
     x="1.5549871"
     y="-0.020460339" />
  <path
     fill="#ffffff"
     d="M 7.732,0 A 59.316,59.316 0 0 0 2.755,0.218 V 24 a 62.933,62.933 0 0 1 3.619,-0.687 c 0.17,-0.028 0.34,-0.053 0.509,-0.078 0.215,-0.033 0.43,-0.066 0.644,-0.096 l 0.205,-0.03 z m 1.18,0.003 V 22.96 A 61.042,61.042 0 0 1 21.245,22.747 V 1.485 A 60.859,60.859 0 0 0 8.912,0.003 Z m 1.707,1.81 a 0.59,0.59 0 0 1 0.015,0 c 3.06,0.088 6.125,0.404 9.167,0.95 A 0.59,0.59 0 0 1 20.277,3.449 0.59,0.59 0 0 1 19.708,3.933 0.59,0.59 0 0 1 19.592,3.924 60.622,60.622 0 0 0 10.6,2.993 0.59,0.59 0 0 1 10.027,2.386 0.59,0.59 0 0 1 10.619,1.814 Z M 6.407,1.841 A 0.59,0.59 0 0 1 6.985,2.406 0.59,0.59 0 0 1 6.421,3.02 59.74,59.74 0 0 0 4.066,3.164 0.59,0.59 0 0 1 4.026,3.166 0.59,0.59 0 0 1 3.431,2.624 0.59,0.59 0 0 1 3.971,1.989 c 0.8,-0.065 1.6,-0.114 2.401,-0.148 a 0.59,0.59 0 0 1 0.035,0 z m 4.202,2.834 a 0.59,0.59 0 0 1 0.015,0 61.6,61.6 0 0 1 9.167,0.8 0.59,0.59 0 0 1 0.488,0.677 A 0.59,0.59 0 0 1 19.677,6.646 0.59,0.59 0 0 1 19.601,6.64 60.376,60.376 0 0 0 10.611,5.854 0.59,0.59 0 0 1 10.027,5.258 0.59,0.59 0 0 1 10.609,4.675 Z M 6.398,4.772 A 0.59,0.59 0 0 1 6.985,5.327 0.59,0.59 0 0 1 6.431,5.949 C 5.645,5.995 4.859,6.056 4.075,6.133 A 0.59,0.59 0 0 1 4.035,6.136 0.59,0.59 0 0 1 3.432,5.603 0.59,0.59 0 0 1 3.962,4.959 c 0.8,-0.078 1.599,-0.14 2.4,-0.187 a 0.59,0.59 0 0 1 0.036,0 z M 10.6,7.535 a 0.59,0.59 0 0 1 0.015,0 c 3.06,-0.013 6.125,0.204 9.167,0.65 A 0.59,0.59 0 0 1 20.28,8.855 0.59,0.59 0 0 1 19.687,9.359 0.59,0.59 0 0 1 19.611,9.353 60.142,60.142 0 0 0 10.619,8.715 0.59,0.59 0 0 1 10.027,8.127 0.59,0.59 0 0 1 10.6,7.535 Z m 1.153,2.846 a 61.093,61.093 0 0 1 8.02,0.515 0.59,0.59 0 0 1 0.509,0.66 0.59,0.59 0 0 1 -0.586,0.514 0.59,0.59 0 0 1 -0.076,-0.005 59.982,59.982 0 0 0 -8.99,-0.492 0.59,0.59 0 0 1 -0.603,-0.577 0.59,0.59 0 0 1 0.578,-0.603 c 0.382,-0.008 0.765,-0.012 1.148,-0.012 z m 1.139,2.832 a 60.92,60.92 0 0 1 6.871,0.394 0.59,0.59 0 0 1 0.52,0.652 0.59,0.59 0 0 1 -0.577,0.523 0.59,0.59 0 0 1 -0.076,-0.004 59.936,59.936 0 0 0 -8.991,-0.344 0.59,0.59 0 0 1 -0.61,-0.568 0.59,0.59 0 0 1 0.567,-0.611 c 0.765,-0.028 1.53,-0.042 2.296,-0.042 z"
     id="path1" />
</svg>
